<svg width="33" height="24" viewBox="0 0 33 24" fill="none" xmlns="http://www.w3.org/2000/svg">
    <path d="M20.4167 0C18.8696 0 17.3858 0.614581 16.2919 1.70854C15.1979 2.80251 14.5833 4.28624 14.5833 5.83333C14.5833 7.38043 15.1979 8.86416 16.2919 9.95812C17.3858 11.0521 18.8696 11.6667 20.4167 11.6667C21.9638 11.6667 23.4475 11.0521 24.5415 9.95812C25.6354 8.86416 26.25 7.38043 26.25 5.83333C26.25 4.28624 25.6354 2.80251 24.5415 1.70854C23.4475 0.614581 21.9638 0 20.4167 0ZM20.4167 2.77083C20.8188 2.77083 21.2171 2.85005 21.5886 3.00395C21.9602 3.15786 22.2978 3.38344 22.5822 3.66782C22.8666 3.9522 23.0921 4.28981 23.246 4.66137C23.4 5.03293 23.4792 5.43116 23.4792 5.83333C23.4792 6.23551 23.4 6.63374 23.246 7.0053C23.0921 7.37686 22.8666 7.71447 22.5822 7.99885C22.2978 8.28323 21.9602 8.50881 21.5886 8.66271C21.2171 8.81662 20.8188 8.89583 20.4167 8.89583C20.0145 8.89583 19.6163 8.81662 19.2447 8.66271C18.8731 8.50881 18.5355 8.28323 18.2512 7.99885C17.9668 7.71447 17.7412 7.37686 17.5873 7.0053C17.4334 6.63374 17.3542 6.23551 17.3542 5.83333C17.3542 5.02111 17.6768 4.24215 18.2512 3.66782C18.8255 3.09349 19.6044 2.77083 20.4167 2.77083ZM4.375 4.375V8.75H0V11.6667H4.375V16.0417H7.29167V11.6667H11.6667V8.75H7.29167V4.375H4.375ZM20.4167 13.125C16.5229 13.125 8.75 15.0646 8.75 18.9583V23.3333H32.0833V18.9583C32.0833 15.0646 24.3104 13.125 20.4167 13.125ZM20.4167 15.8958C24.7479 15.8958 29.3125 18.025 29.3125 18.9583V20.5625H11.5208V18.9583C11.5208 18.025 16.0417 15.8958 20.4167 15.8958Z"
          fill="#F8F8F8"/>
</svg>
