<svg width="35" height="35" viewBox="0 0 35 35" fill="none" xmlns="http://www.w3.org/2000/svg">
    <g clip-path="url(#clip0_5157_96370)">
        <path d="M10.6634 13.125H8.29508L5.10425 21.875H7.44779L8.09821 20.0871H10.8603L11.5107 21.875H13.8542L10.6634 13.125ZM8.6305 18.6288L9.47925 16.3042L10.328 18.6302L8.6305 18.6288ZM21.5017 13.125H16.3976V21.875H18.5851V18.9583H21.5017C21.7905 18.9637 22.0773 18.9107 22.3451 18.8027C22.613 18.6947 22.8562 18.5337 23.0604 18.3295C23.2646 18.1253 23.4256 17.882 23.5336 17.6142C23.6417 17.3464 23.6946 17.0596 23.6892 16.7708V15.3125C23.6946 15.0238 23.6417 14.7369 23.5336 14.4691C23.4256 14.2013 23.2646 13.958 23.0604 13.7538C22.8562 13.5496 22.613 13.3887 22.3451 13.2806C22.0773 13.1726 21.7905 13.1197 21.5017 13.125ZM21.5017 16.7708H18.5851V15.3125H21.5017V16.7708ZM26.2501 13.125H28.4376V21.875H26.2501V13.125Z"
              fill="#F8F8F8"/>
        <path d="M32.0833 8.75001V26.25H2.91667V8.75001H32.0833ZM32.0833 5.83334H2.91667C2.14312 5.83334 1.40125 6.14063 0.854272 6.68762C0.307291 7.2346 0 7.97646 0 8.75001L0 26.25C0 27.0236 0.307291 27.7654 0.854272 28.3124C1.40125 28.8594 2.14312 29.1667 2.91667 29.1667H32.0833C32.8569 29.1667 33.5987 28.8594 34.1457 28.3124C34.6927 27.7654 35 27.0236 35 26.25V8.75001C35 7.97646 34.6927 7.2346 34.1457 6.68762C33.5987 6.14063 32.8569 5.83334 32.0833 5.83334Z"
              fill="#F8F8F8"/>
    </g>
    <defs>
        <clipPath id="clip0_5157_96370">
            <rect width="35" height="35" fill="white"/>
        </clipPath>
    </defs>
</svg>
