<svg width="35" height="35" viewBox="0 0 35 35" fill="none" xmlns="http://www.w3.org/2000/svg">
    <path d="M8.4375 3.75C7.1943 3.75 6.00201 4.24386 5.12294 5.12294C4.24386 6.00201 3.75 7.1943 3.75 8.4375V26.5625C3.75 27.8057 4.24386 28.998 5.12294 29.8771C6.00201 30.7561 7.1943 31.25 8.4375 31.25H26.5625C27.8057 31.25 28.998 30.7561 29.8771 29.8771C30.7561 28.998 31.25 27.8057 31.25 26.5625V8.4375C31.25 7.1943 30.7561 6.00201 29.8771 5.12294C28.998 4.24386 27.8057 3.75 26.5625 3.75H8.4375ZM5.625 8.4375C5.625 7.69158 5.92132 6.97621 6.44876 6.44876C6.97621 5.92132 7.69158 5.625 8.4375 5.625H26.5625C27.3084 5.625 28.0238 5.92132 28.5512 6.44876C29.0787 6.97621 29.375 7.69158 29.375 8.4375V26.5625C29.375 27.3084 29.0787 28.0238 28.5512 28.5512C28.0238 29.0787 27.3084 29.375 26.5625 29.375H8.4375C7.69158 29.375 6.97621 29.0787 6.44876 28.5512C5.92132 28.0238 5.625 27.3084 5.625 26.5625V8.4375ZM7.5 11.25C7.5 10.587 7.76339 9.95107 8.23223 9.48223C8.70107 9.01339 9.33696 8.75 10 8.75H25C25.663 8.75 26.2989 9.01339 26.7678 9.48223C27.2366 9.95107 27.5 10.587 27.5 11.25V13.75C27.5 14.413 27.2366 15.0489 26.7678 15.5178C26.2989 15.9866 25.663 16.25 25 16.25H10C9.33696 16.25 8.70107 15.9866 8.23223 15.5178C7.76339 15.0489 7.5 14.413 7.5 13.75V11.25ZM10 10.625C9.83424 10.625 9.67527 10.6908 9.55806 10.8081C9.44085 10.9253 9.375 11.0842 9.375 11.25V13.75C9.375 13.9158 9.44085 14.0747 9.55806 14.1919C9.67527 14.3092 9.83424 14.375 10 14.375H25C25.1658 14.375 25.3247 14.3092 25.4419 14.1919C25.5592 14.0747 25.625 13.9158 25.625 13.75V11.25C25.625 11.0842 25.5592 10.9253 25.4419 10.8081C25.3247 10.6908 25.1658 10.625 25 10.625H10ZM7.5 19.6875C7.5 19.4389 7.59877 19.2004 7.77459 19.0246C7.9504 18.8488 8.18886 18.75 8.4375 18.75H15.3125C15.5611 18.75 15.7996 18.8488 15.9754 19.0246C16.1512 19.2004 16.25 19.4389 16.25 19.6875C16.25 19.9361 16.1512 20.1746 15.9754 20.3504C15.7996 20.5262 15.5611 20.625 15.3125 20.625H8.4375C8.18886 20.625 7.9504 20.5262 7.77459 20.3504C7.59877 20.1746 7.5 19.9361 7.5 19.6875ZM8.4375 23.4375C8.18886 23.4375 7.9504 23.5363 7.77459 23.7121C7.59877 23.8879 7.5 24.1264 7.5 24.375C7.5 24.6236 7.59877 24.8621 7.77459 25.0379C7.9504 25.2137 8.18886 25.3125 8.4375 25.3125H15.3125C15.5611 25.3125 15.7996 25.2137 15.9754 25.0379C16.1512 24.8621 16.25 24.6236 16.25 24.375C16.25 24.1264 16.1512 23.8879 15.9754 23.7121C15.7996 23.5363 15.5611 23.4375 15.3125 23.4375H8.4375ZM19.375 20.3125C19.375 19.105 20.355 18.125 21.5625 18.125H25.3125C26.52 18.125 27.5 19.105 27.5 20.3125V24.0625C27.5 24.6427 27.2695 25.1991 26.8593 25.6093C26.4491 26.0195 25.8927 26.25 25.3125 26.25H21.5625C20.9823 26.25 20.4259 26.0195 20.0157 25.6093C19.6055 25.1991 19.375 24.6427 19.375 24.0625V20.3125ZM21.5625 20C21.4796 20 21.4001 20.0329 21.3415 20.0915C21.2829 20.1501 21.25 20.2296 21.25 20.3125V24.0625C21.25 24.235 21.39 24.375 21.5625 24.375H25.3125C25.3954 24.375 25.4749 24.3421 25.5335 24.2835C25.5921 24.2249 25.625 24.1454 25.625 24.0625V20.3125C25.625 20.2296 25.5921 20.1501 25.5335 20.0915C25.4749 20.0329 25.3954 20 25.3125 20H21.5625Z"
          fill="#F8F8F8"/>
</svg>
