<svg width="35" height="35" viewBox="0 0 35 35" fill="none" xmlns="http://www.w3.org/2000/svg">
    <path d="M26.2499 29.1667V24.7917H21.8749V21.875H26.2499V17.5H29.1666V21.875H33.5416V24.7917H29.1666V29.1667H26.2499ZM4.37492 30.625C3.57284 30.625 2.88596 30.3392 2.3143 29.7675C1.74263 29.1958 1.45728 28.5094 1.45825 27.7083V7.29167C1.45825 6.48959 1.74409 5.80271 2.31575 5.23104C2.88742 4.65938 3.57381 4.37403 4.37492 4.375H24.7916C25.5937 4.375 26.2805 4.66084 26.8522 5.2325C27.4239 5.80417 27.7092 6.49056 27.7083 7.29167V14.5833H24.7916V11.6667H4.37492V27.7083H23.3333V30.625H4.37492ZM4.37492 8.75H24.7916V7.29167H4.37492V8.75Z"
          fill="#F8F8F8"/>
</svg>
