<svg width="207" height="56" viewBox="0 0 207 56" fill="none" xmlns="http://www.w3.org/2000/svg">
<circle cx="28" cy="28" r="28" fill="white"/>
<path fill-rule="evenodd" clip-rule="evenodd" d="M28 56C43.464 56 56 43.464 56 28C56 12.536 43.464 0 28 0C12.536 0 0 12.536 0 28C0 43.464 12.536 56 28 56ZM38.0347 17.9831H18.0378C17.2387 17.9831 16.5214 18.3328 16.0304 18.8876H40.0421C39.5511 18.3328 38.8338 17.9831 38.0347 17.9831ZM9.94057 23.8004C9.94057 21.6026 11.3837 19.7419 13.3741 19.1142C14.0227 17.1597 15.8656 15.75 18.0378 15.75H38.0347C40.2167 15.75 42.0665 17.1725 42.7072 19.1408C44.6552 19.7931 46.0589 21.6328 46.0589 23.8004V35.1819C46.0589 37.8951 43.8594 40.0947 41.1461 40.0947H35.7284C34.3436 40.0947 33.0657 39.3973 32.298 38.2825H23.8395C23.0821 39.4008 21.8093 40.0947 20.4224 40.0947H14.8534C12.1401 40.0947 9.94057 37.8951 9.94057 35.1819V23.8004ZM25.2605 36.0495H30.8403C29.2756 34.6392 26.8024 34.6328 25.2605 36.0495ZM41.7515 29.491C41.7515 32.0531 39.6745 34.1301 37.1124 34.1301C34.5503 34.1301 32.4734 32.0531 32.4734 29.491C32.4734 26.929 34.5503 24.852 37.1124 24.852C39.6745 24.852 41.7515 26.929 41.7515 29.491ZM23.5265 29.4911C23.5265 32.0532 21.4495 34.1302 18.8874 34.1302C16.3253 34.1302 14.2484 32.0532 14.2484 29.4911C14.2484 26.929 16.3253 24.8521 18.8874 24.8521C21.4495 24.8521 23.5265 26.929 23.5265 29.4911ZM17.2305 29.6567C17.2305 28.9986 17.4572 28.5557 17.7503 28.2757C18.0519 27.9876 18.4635 27.8342 18.8873 27.8342C19.2533 27.8342 19.55 27.5375 19.55 27.1715C19.55 26.8055 19.2533 26.5088 18.8873 26.5088C18.1512 26.5088 17.403 26.7745 16.8348 27.3172C16.2581 27.8681 15.905 28.6678 15.905 29.6567C15.905 30.0227 16.2017 30.3194 16.5677 30.3194C16.9337 30.3194 17.2305 30.0227 17.2305 29.6567ZM35.1241 29.6567C35.1241 28.9986 35.3509 28.5557 35.644 28.2757C35.9456 27.9876 36.3571 27.8342 36.7809 27.8342C37.1469 27.8342 37.4436 27.5375 37.4436 27.1715C37.4436 26.8055 37.1469 26.5088 36.7809 26.5088C36.0449 26.5088 35.2967 26.7745 34.7285 27.3172C34.1517 27.8681 33.7986 28.6678 33.7986 29.6567C33.7986 30.0227 34.0953 30.3194 34.4614 30.3194C34.8274 30.3194 35.1241 30.0227 35.1241 29.6567Z" fill="#0071E0"/>
<path d="M94.2213 18.0572L86.2536 41.7594H76.6455L68.6779 18.0572H76.5786L81.4663 34.3608L86.3206 18.0572H94.2213Z" fill="black"/>
<path d="M98.6302 21.3714C97.3357 21.3714 96.2979 21.0255 95.5168 20.3336C94.7356 19.6418 94.345 18.7713 94.345 17.7224C94.345 16.6511 94.7356 15.7695 95.5168 15.0776C96.2979 14.3634 97.3357 14.0063 98.6302 14.0063C99.9023 14.0063 100.929 14.3634 101.71 15.0776C102.491 15.7695 102.882 16.6511 102.882 17.7224C102.882 18.7713 102.491 19.6418 101.71 20.3336C100.929 21.0255 99.9023 21.3714 98.6302 21.3714ZM102.313 22.8779V41.7594H94.8807V22.8779H102.313Z" fill="black"/>
<path d="M103.661 32.3186C103.661 30.3323 103.996 28.6138 104.665 27.1631C105.357 25.6901 106.294 24.5741 107.477 23.8153C108.66 23.0342 109.988 22.6436 111.461 22.6436C112.689 22.6436 113.749 22.9003 114.641 23.4136C115.534 23.9046 116.215 24.5853 116.684 25.4557V22.8779H124.082V41.7594H116.684V39.1816C116.215 40.052 115.534 40.7439 114.641 41.2572C113.749 41.7482 112.689 41.9937 111.461 41.9937C109.988 41.9937 108.66 41.6143 107.477 40.8555C106.294 40.0743 105.357 38.9584 104.665 37.5077C103.996 36.0347 103.661 34.305 103.661 32.3186ZM116.684 32.3186C116.684 31.3143 116.427 30.5332 115.914 29.9752C115.4 29.4172 114.742 29.1383 113.938 29.1383C113.135 29.1383 112.477 29.4172 111.963 29.9752C111.45 30.5332 111.193 31.3143 111.193 32.3186C111.193 33.323 111.45 34.1041 111.963 34.6621C112.477 35.22 113.135 35.499 113.938 35.499C114.742 35.499 115.4 35.22 115.914 34.6621C116.427 34.1041 116.684 33.323 116.684 32.3186Z" fill="black"/>
<path d="M133.847 26.3596C134.606 25.266 135.532 24.3956 136.626 23.7484C137.719 23.0788 138.858 22.744 140.041 22.744V30.6782H137.931C136.525 30.6782 135.488 30.9237 134.818 31.4148C134.171 31.9058 133.847 32.7762 133.847 34.026V41.7594H126.415V22.8779H133.847V26.3596Z" fill="black"/>
<path d="M148.47 36.1351H155.634V41.7594H141.038V18.0572H148.47V36.1351Z" fill="black"/>
<path d="M160.718 21.3714C159.424 21.3714 158.386 21.0255 157.605 20.3336C156.824 19.6418 156.433 18.7713 156.433 17.7224C156.433 16.6511 156.824 15.7695 157.605 15.0776C158.386 14.3634 159.424 14.0063 160.718 14.0063C161.99 14.0063 163.017 14.3634 163.798 15.0776C164.579 15.7695 164.97 16.6511 164.97 17.7224C164.97 18.7713 164.579 19.6418 163.798 20.3336C163.017 21.0255 161.99 21.3714 160.718 21.3714ZM164.401 22.8779V41.7594H156.969V22.8779H164.401Z" fill="black"/>
<path d="M176.328 34.6956L179.341 22.8779H187.241L180.948 41.7594H171.674L165.381 22.8779H173.281L176.328 34.6956Z" fill="black"/>
<path d="M206.488 32.1513C206.488 32.6646 206.454 33.1556 206.387 33.6243H194.436C194.547 35.2535 195.228 36.0682 196.478 36.0682C197.281 36.0682 197.862 35.6999 198.219 34.9634H206.086C205.818 36.3025 205.249 37.5077 204.379 38.579C203.531 39.6279 202.448 40.4649 201.131 41.0898C199.837 41.6924 198.408 41.9937 196.846 41.9937C194.971 41.9937 193.298 41.6031 191.825 40.822C190.374 40.0408 189.236 38.9249 188.41 37.4742C187.606 36.0012 187.205 34.2827 187.205 32.3186C187.205 30.3546 187.606 28.6473 188.41 27.1966C189.236 25.7235 190.374 24.5965 191.825 23.8153C193.298 23.0342 194.971 22.6436 196.846 22.6436C198.721 22.6436 200.384 23.0342 201.834 23.8153C203.307 24.5741 204.446 25.6677 205.249 27.0961C206.075 28.5245 206.488 30.2096 206.488 32.1513ZM198.955 30.3769C198.955 29.752 198.754 29.2833 198.353 28.9709C197.951 28.6361 197.449 28.4687 196.846 28.4687C195.529 28.4687 194.759 29.1048 194.536 30.3769H198.955Z" fill="black"/>
</svg>
