<svg width="148" height="40" viewBox="0 0 148 40" fill="none" xmlns="http://www.w3.org/2000/svg">
<circle cx="20" cy="20" r="20" fill="black"/>
<path fill-rule="evenodd" clip-rule="evenodd" d="M20 40C31.0457 40 40 31.0457 40 20C40 8.9543 31.0457 0 20 0C8.9543 0 0 8.9543 0 20C0 31.0457 8.9543 40 20 40ZM27.1662 12.8451H12.8827C12.312 12.8451 11.7997 13.0948 11.449 13.491H28.6C28.2493 13.0948 27.737 12.8451 27.1662 12.8451ZM7.09892 17.0002C7.09892 15.4303 8.1298 14.1012 9.55155 13.6529C10.0149 12.2569 11.3312 11.25 12.8827 11.25H27.1662C28.7248 11.25 30.046 12.2661 30.5037 13.6719C31.8951 14.1379 32.8977 15.4519 32.8977 17.0002V25.1298C32.8977 27.0679 31.3266 28.639 29.3886 28.639H25.5188C24.5297 28.639 23.6169 28.1408 23.0685 27.3447H17.0267C16.4856 28.1433 15.5765 28.639 14.586 28.639H10.608C8.67001 28.639 7.09892 27.0679 7.09892 25.1298V17.0002ZM18.0416 25.7496H22.0274C20.9097 24.7422 19.143 24.7376 18.0416 25.7496ZM16.8037 21.0651C16.8037 22.8951 15.3202 24.3787 13.4901 24.3787C11.66 24.3787 10.1765 22.8951 10.1765 21.0651C10.1765 19.235 11.66 17.7515 13.4901 17.7515C15.3202 17.7515 16.8037 19.235 16.8037 21.0651ZM29.8213 21.0651C29.8213 22.8951 28.3377 24.3787 26.5077 24.3787C24.6776 24.3787 23.1941 22.8951 23.1941 21.0651C23.1941 19.235 24.6776 17.7515 26.5077 17.7515C28.3377 17.7515 29.8213 19.235 29.8213 21.0651ZM12.3071 21.1834C12.3071 20.7133 12.4691 20.3969 12.6784 20.1969C12.8939 19.9912 13.1879 19.8816 13.4905 19.8816C13.752 19.8816 13.9639 19.6697 13.9639 19.4082C13.9639 19.1468 13.752 18.9348 13.4905 18.9348C12.9648 18.9348 12.4304 19.1246 12.0245 19.5123C11.6126 19.9058 11.3604 20.477 11.3604 21.1834C11.3604 21.4448 11.5723 21.6567 11.8337 21.6567C12.0952 21.6567 12.3071 21.4448 12.3071 21.1834ZM25.0882 21.1834C25.0882 20.7133 25.2502 20.3969 25.4596 20.1969C25.675 19.9912 25.969 19.8816 26.2716 19.8816C26.5331 19.8816 26.745 19.6697 26.745 19.4082C26.745 19.1468 26.5331 18.9348 26.2716 18.9348C25.7459 18.9348 25.2115 19.1246 24.8056 19.5123C24.3937 19.9058 24.1415 20.477 24.1415 21.1834C24.1415 21.4448 24.3534 21.6567 24.6148 21.6567C24.8763 21.6567 25.0882 21.4448 25.0882 21.1834Z" fill="white"/>
<path d="M67.301 12.8979L61.6098 29.8281H54.7469L49.0557 12.8979H54.699L58.1903 24.5434L61.6576 12.8979H67.301Z" fill="white"/>
<path d="M70.4502 15.2653C69.5256 15.2653 68.7843 15.0182 68.2263 14.524C67.6684 14.0298 67.3894 13.4081 67.3894 12.6588C67.3894 11.8936 67.6684 11.2639 68.2263 10.7697C68.7843 10.2596 69.5256 10.0045 70.4502 10.0045C71.3589 10.0045 72.0922 10.2596 72.6502 10.7697C73.2081 11.2639 73.4871 11.8936 73.4871 12.6588C73.4871 13.4081 73.2081 14.0298 72.6502 14.524C72.0922 15.0182 71.3589 15.2653 70.4502 15.2653ZM73.0806 16.3414V29.8281H67.772V16.3414H73.0806Z" fill="white"/>
<path d="M74.0434 23.0847C74.0434 21.6659 74.2826 20.4384 74.7608 19.4022C75.255 18.35 75.9246 17.5529 76.7695 17.0109C77.6144 16.453 78.5629 16.174 79.6151 16.174C80.4919 16.174 81.2491 16.3573 81.8868 16.724C82.5245 17.0747 83.0107 17.5609 83.3455 18.1826V16.3414H88.6302V29.8281H83.3455V27.9868C83.0107 28.6086 82.5245 29.1027 81.8868 29.4694C81.2491 29.8201 80.4919 29.9955 79.6151 29.9955C78.5629 29.9955 77.6144 29.7245 76.7695 29.1825C75.9246 28.6245 75.255 27.8274 74.7608 26.7912C74.2826 25.739 74.0434 24.5035 74.0434 23.0847ZM83.3455 23.0847C83.3455 22.3674 83.1621 21.8094 82.7955 21.4108C82.4288 21.0123 81.9585 20.813 81.3846 20.813C80.8107 20.813 80.3404 21.0123 79.9738 21.4108C79.6071 21.8094 79.4238 22.3674 79.4238 23.0847C79.4238 23.8021 79.6071 24.3601 79.9738 24.7586C80.3404 25.1572 80.8107 25.3564 81.3846 25.3564C81.9585 25.3564 82.4288 25.1572 82.7955 24.7586C83.1621 24.3601 83.3455 23.8021 83.3455 23.0847Z" fill="white"/>
<path d="M95.6052 18.8283C96.1472 18.0471 96.8088 17.4254 97.5899 16.9631C98.3711 16.4848 99.1841 16.2457 100.029 16.2457V21.913H98.5225C97.5182 21.913 96.7769 22.0884 96.2986 22.4391C95.8363 22.7898 95.6052 23.4115 95.6052 24.3043V29.8281H90.2966V16.3414H95.6052V18.8283Z" fill="white"/>
<path d="M106.05 25.8108H111.167V29.8281H100.742V12.8979H106.05V25.8108Z" fill="white"/>
<path d="M114.799 15.2653C113.874 15.2653 113.133 15.0182 112.575 14.524C112.017 14.0298 111.738 13.4081 111.738 12.6588C111.738 11.8936 112.017 11.2639 112.575 10.7697C113.133 10.2596 113.874 10.0045 114.799 10.0045C115.707 10.0045 116.441 10.2596 116.999 10.7697C117.557 11.2639 117.836 11.8936 117.836 12.6588C117.836 13.4081 117.557 14.0298 116.999 14.524C116.441 15.0182 115.707 15.2653 114.799 15.2653ZM117.429 16.3414V29.8281H112.121V16.3414H117.429Z" fill="white"/>
<path d="M125.948 24.7825L128.101 16.3414H133.744L129.248 29.8281H122.625L118.129 16.3414H123.772L125.948 24.7825Z" fill="white"/>
<path d="M147.491 22.9652C147.491 23.3318 147.467 23.6825 147.42 24.0173H138.883C138.962 25.1811 139.449 25.7629 140.341 25.7629C140.915 25.7629 141.33 25.4999 141.585 24.9738H147.204C147.013 25.9303 146.607 26.7912 145.985 27.5564C145.379 28.3057 144.606 28.9035 143.665 29.3498C142.741 29.7803 141.72 29.9955 140.604 29.9955C139.265 29.9955 138.07 29.7165 137.018 29.1585C135.981 28.6006 135.168 27.8035 134.578 26.7673C134.005 25.7151 133.718 24.4876 133.718 23.0847C133.718 21.6819 134.005 20.4623 134.578 19.4261C135.168 18.3739 135.981 17.5689 137.018 17.0109C138.07 16.453 139.265 16.174 140.604 16.174C141.944 16.174 143.131 16.453 144.167 17.0109C145.22 17.5529 146.033 18.3341 146.607 19.3544C147.196 20.3746 147.491 21.5782 147.491 22.9652ZM142.111 21.6978C142.111 21.2514 141.967 20.9167 141.681 20.6935C141.394 20.4543 141.035 20.3348 140.604 20.3348C139.664 20.3348 139.114 20.7891 138.954 21.6978H142.111Z" fill="white"/>
</svg>
